HIERARCHY
ROOT pelvis
{
  OFFSET 0 100 0
  CHANNELS 6 Xposition Yposition Zposition Zrotation Xrotation Yrotation
  JOINT pelvis_right_femur
  {
    OFFSET -10.78128 -3.44521 -0.5502486
    CHANNELS 3 Zrotation Xrotation Yrotation
    JOINT right_femur_tibia
    {
      OFFSET -0.8047443 -44.0398 -0.1307829
      CHANNELS 3 Zrotation Xrotation Yrotation
      JOINT right_tibia_foot
      {
        OFFSET 3.006224 -47.83518 -5
        CHANNELS 3 Zrotation Xrotation Yrotation
        End Site
        {
          OFFSET 0 -5 15
        }
      }
    }
  }
  JOINT pelvis_left_femur
  {
    OFFSET 10.78128 -3.44521 -0.5502486
    CHANNELS 3 Zrotation Xrotation Yrotation
    JOINT left_femur_tibia
    {
      OFFSET 0.8047443 -44.0398 -0.1307829
      CHANNELS 3 Zrotation Xrotation Yrotation
      JOINT left_tibia_foot
      {
        OFFSET -4.370144 -48.10324 -4.275266
        CHANNELS 3 Zrotation Xrotation Yrotation
        End Site
        {
          OFFSET 0 -5 15
        }
      }
    }
  }
  JOINT pelvis_spine1
  {
    OFFSET 0 6.468898 -3.129235
    CHANNELS 3 Zrotation Xrotation Yrotation
    JOINT spine1
    {
      OFFSET 0 23.15396 4.99043
      CHANNELS 3 Zrotation Xrotation Yrotation
      JOINT spine2
      {
        OFFSET 0 20.79997 -5.064912
        CHANNELS 3 Zrotation Xrotation Yrotation
        JOINT neck
        {
          OFFSET 0 14.38658 9.616178
          CHANNELS 3 Zrotation Xrotation Yrotation
          End Site
          {
            OFFSET 0 20 0
          }
        }
      }
      JOINT right_manubrium
      {
        OFFSET -5.722621 16.35077 3.967754
        CHANNELS 3 Zrotation Xrotation Yrotation
        JOINT right_clavicle
        {
          OFFSET -13.16364 1.694482 -4.693211
          CHANNELS 3 Zrotation Xrotation Yrotation
          JOINT right_humerus
          {
            OFFSET -28.5034 -0.3100689 -2.792744
            CHANNELS 3 Zrotation Xrotation Yrotation
            JOINT right_radius
            {
              OFFSET -25.15693 0.02248979 -1.271978
              CHANNELS 3 Zrotation Xrotation Yrotation
              End Site
              {
                OFFSET -15 0 0
              }
            }
          }
        }
      }
      JOINT left_manubrium
      {
        OFFSET 5.722621 16.35077 3.967754
        CHANNELS 3 Zrotation Xrotation Yrotation
        JOINT left_clavicle
        {
          OFFSET 13.16364 1.694482 -4.693211
          CHANNELS 3 Zrotation Xrotation Yrotation
          JOINT left_humerus
          {
            OFFSET 29.39168 -1.063119 -2.237045
            CHANNELS 3 Zrotation Xrotation Yrotation
            JOINT left_radius
            {
              OFFSET 24.59957 -0.9528479 0.9047498
              CHANNELS 3 Zrotation Xrotation Yrotation
              End Site
              {
                OFFSET 15 -0 -0
              }
            }
          }
        }
      }
    }
  }
}
MOTION
Frames: 21
Frame Time: 0.0416666666667
0 103.5113 0 1.503413 -3.318169 0.2094571 1.124405 -10.53082 6.905753 -0 39.92348 -0 -5.654611 -16.6768 -3.453862 -6.610025 12.24614 -24.74951 -0 5.06613 -0 -0.7408423 -18.75159 23.03704 -0.3727091 -1.63049 4.253362 0.09832931 7.620811 -7.222427 1.737031 22.49351 7.782728 5.247163 -22.19509 8.681408 5.854907 -18.56388 10.25602 89.63588 36.61685 -24.49005 -0 0 16.58672 -6.040606 8.572793 1.60574 6.3707 -20.78168 -3.565187 -101.7884 41.99775 30.29164 0 0 -24.66044 -9.936896 19.24001 29.11999
0.1875311 103.5321 1.203643 0.9526659 -2.209642 0.265176 1.999168 -13.39489 7.918618 -0 40.79593 -0 -5.301353 -16.4469 -3.890515 -6.33825 12.01985 -24.79776 -0 5.204874 -0 -1.875834 -19.71434 22.59219 -0.3954572 -1.609891 4.19103 0.1880622 7.631398 -7.27786 1.712307 22.43028 7.79389 5.224256 -22.23977 8.667392 5.896742 -18.46584 10.28978 89.57499 36.60344 -24.48708 -0 0 16.40377 -6.185542 8.717484 1.780785 6.380145 -20.8056 -3.539584 -101.3531 41.7766 29.79959 0 0 -24.73668 -9.707278 19.09019 28.81401
0.3527954 103.3906 2.681229 0.1594514 -1.458185 0.2903645 3.380646 -18.63501 7.162808 -0 38.01303 -0 -6.106235 -14.05085 -3.769496 -5.774192 12.26034 -23.52583 -0 5.740964 -0 -2.081784 -21.37711 21.58487 -0.3794666 -1.569175 3.993988 0.5037967 7.815959 -7.537437 1.646999 21.91861 7.932017 5.184012 -22.39104 8.722497 6.118782 -17.98615 10.40299 89.4738 36.71957 -24.73147 -0 0 15.54198 -6.845325 9.675441 2.565808 6.744714 -21.15909 -3.346579 -98.93238 40.47625 27.03733 0 0 -25.7843 -7.907456 18.24452 26.71076
0.5096907 103.0822 4.435242 -0.4709836 -0.7558842 0.3023678 4.455202 -23.03066 6.737306 -0 35.08113 -0 -6.575174 -12.13676 -3.744585 -5.299194 12.5365 -22.47322 -0 5.931371 -0 -2.25481 -22.80952 20.67686 -0.3644255 -1.558908 3.92845 0.6118071 7.893921 -7.634166 1.628483 21.71034 7.991708 5.173107 -22.44605 8.759223 6.191888 -17.80721 10.43593 89.46871 36.77219 -24.85594 -0 0 15.21159 -7.084556 10.04095 2.84879 6.911249 -21.31401 -3.270264 -98.01421 39.94903 25.97688 0 0 -26.2619 -7.16485 17.89383 25.85625
0.6597717 102.5398 6.623198 -0.8658506 0.09342858 0.3411873 5.267023 -27.41052 5.916635 -0 30.39537 -0 -6.967265 -9.928851 -3.453705 -5.051881 13.02874 -21.12392 -0 5.990429 -0 -1.370644 -24.02236 19.94175 -0.354709 -1.551795 3.853352 0.7334177 7.9717 -7.739951 1.611945 21.49155 8.050465 5.155568 -22.51341 8.803701 6.265777 -17.61533 10.4685 89.46109 36.80351 -24.99057 -0 0 14.85255 -7.313136 10.39783 3.142431 7.086867 -21.47278 -3.189824 -97.05218 39.38091 24.84874 0 0 -26.78058 -6.372606 17.50796 24.93429
0.8015476 101.7766 9.333107 -1.089745 1.082897 0.4495549 5.808491 -31.24855 5.055699 -0 25.17114 -0 -7.131982 -7.716961 -3.056882 -4.969108 13.67019 -19.80061 -0 6.196952 -0 -0.3416097 -24.92956 19.19728 -0.3404493 -1.547195 3.811965 0.8036334 8.028502 -7.806775 1.602702 21.33731 8.097443 5.148898 -22.55518 8.842143 6.304594 -17.49224 10.48351 89.4833 36.84565 -25.09959 -0 0 14.6126 -7.471468 10.65025 3.330464 7.221867 -21.59386 -3.133687 -96.40539 38.98535 24.09176 0 0 -27.17776 -5.806627 17.23301 24.28949
0.9306819 100.855 12.64756 -1.216171 2.145148 0.6683537 6.176578 -34.29289 4.251483 -0 20.04129 -0 -7.112359 -5.513523 -2.588736 -4.987764 14.44966 -18.56748 -0 6.977572 -0 0.474347 -25.3354 18.32526 -0.3293265 -1.53007 3.766352 0.8769245 8.082246 -7.874208 1.584647 21.19154 8.147032 5.142276 -22.59358 8.868689 6.331491 -17.36623 10.50086 89.51889 36.89846 -25.20453 -0 0 14.35337 -7.682775 10.91988 3.538747 7.339257 -21.71409 -3.08518 -95.75523 38.56349 23.34073 0 0 -27.554 -5.268667 16.93907 23.67173
1.043972 99.88095 16.61968 -1.370484 3.111855 1.019994 6.528327 -36.23563 3.681801 -0 15.83434 -0 -6.987326 -3.458652 -2.154073 -4.965243 15.29668 -17.49496 -0 8.761482 -0 0.4965593 -25.04491 17.10545 -0.3240756 -1.487653 3.711518 0.9564939 8.132524 -7.943925 1.548043 21.06321 8.200318 5.136575 -22.61929 8.865823 6.341757 -17.23186 10.52631 89.57224 36.96987 -25.29598 -0 0 14.06008 -8.010171 11.23262 3.794124 7.417324 -21.83164 -3.053078 -95.09591 38.09401 22.60194 0 0 -27.86552 -4.801557 16.61934 23.12391
1.14072 98.99978 21.2648 -1.649717 3.812226 1.497619 7.000621 -36.75519 3.464408 -0 13.22116 -0 -6.863748 -1.811656 -1.840146 -4.78375 16.04662 -16.5819 -0 11.97185 -0 -0.6270956 -23.79927 15.40267 -0.3379633 -1.40588 3.627786 1.067549 8.181886 -8.030377 1.480371 20.95365 8.253246 5.122794 -22.63148 8.811154 6.340943 -17.06387 10.57428 89.62342 37.04145 -25.35428 -0 0 13.68106 -8.54079 11.62304 4.16127 7.42728 -21.94223 -3.044621 -94.35248 37.50139 21.79388 0 0 -28.06355 -4.414957 16.23783 22.63133
1.22616 98.38523 26.54059 -2.099735 4.121574 2.045579 7.647274 -35.60113 3.60828 -0 12.58883 -0 -6.871519 -0.941886 -1.719681 -4.379009 16.38449 -15.74276 -0 16.98456 -0 -2.923944 -21.35593 13.25094 -0.3887624 -1.276648 3.512189 1.218977 8.230185 -8.131723 1.375074 20.88805 8.290226 5.089937 -22.62098 8.680639 6.330454 -16.86643 10.65669 89.63479 37.0915 -25.32398 -0 0 13.21735 -9.333663 12.08181 4.677451 7.321546 -22.01839 -3.072544 -93.55714 36.77087 20.96398 0 0 -28.03317 -4.184463 15.80593 22.25757
1.314784 98.21186 32.32469 -2.674494 4.0008 2.543723 8.374948 -32.71334 3.952275 -0 13.82616 -0 -7.171769 -1.21184 -1.820723 -3.794869 15.82025 -14.80246 -0 24.04052 -0 -5.893622 -17.64102 10.96593 -0.5006162 -1.100929 3.38033 1.410462 8.278499 -8.231527 1.233808 20.89838 8.287866 5.021246 -22.58419 8.460999 6.309186 -16.6684 10.78244 89.54168 37.10505 -25.10997 -0 0 12.7048 -10.41598 12.56719 5.368199 7.052947 -22.01544 -3.142952 -92.77852 35.91308 20.20845 0 0 -27.64922 -4.162102 15.34674 22.04432
1.428855 98.59957 38.41291 -3.197725 3.496768 2.822484 8.931403 -28.34484 4.191178 -0 16.0935 -0 -7.901514 -2.709434 -2.098119 -3.20666 13.79541 -13.56614 -0 33.04856 -0 -8.537709 -13.01988 9.08824 -0.6940673 -0.8911927 3.274557 1.622199 8.327587 -8.293673 1.068967 21.01117 8.226693 4.90183 -22.5274 8.164015 6.265285 -16.52777 10.94911 89.27358 37.09826 -24.59665 -0 0 12.22142 -11.76552 13.01522 6.229344 6.602094 -21.8853 -3.245379 -92.10832 34.97273 19.65997 0 0 -26.83965 -4.331444 14.88385 21.97613
1.584997 99.54451 44.56056 -3.368599 2.641002 2.730389 8.985049 -23.00449 4.044685 -0 17.93856 -0 -8.995625 -4.963026 -2.429772 -2.845904 9.98844 -12.00929 -0 43.30959 -0 -9.818531 -8.440346 8.151849 -0.9702295 -0.6702782 3.247072 1.820675 8.382281 -8.280632 0.901134 21.21822 8.107616 4.728942 -22.46307 7.831375 6.181113 -16.49952 11.1404 88.79276 37.10916 -23.71438 -0 0 11.84883 -13.32321 13.38584 7.230678 6.011152 -21.61417 -3.348596 -91.58154 33.98348 19.37844 0 0 -25.66974 -4.562636 14.41245 21.93187
1.771322 100.8853 50.55598 -2.903776 1.31588 2.239235 8.317099 -17.16454 3.504215 -0 18.05906 -0 -9.989312 -7.028845 -2.663159 -2.822992 4.661814 -10.419 -0 53.31717 -0 -9.440212 -5.09032 8.455237 -1.299413 -0.465784 3.333621 1.967852 8.461278 -8.178375 0.7530152 21.46576 7.95496 4.519653 -22.38551 7.51579 6.050565 -16.59896 11.33302 88.12432 37.15794 -22.5017 -0 0 11.63701 -15.03122 13.70395 8.328542 5.380964 -21.2494 -3.418078 -91.14558 32.93111 19.29462 0 0 -24.33265 -4.667697 13.90411 21.73731
1.941824 102.341 56.27325 -1.808995 -0.6243538 1.512374 7.065319 -11.06903 2.904016 -0 16.23463 -0 -10.18619 -8.173123 -2.71684 -2.979466 -1.401885 -9.13977 -0 60.88447 -0 -8.18402 -3.642094 9.927157 -1.637017 -0.300279 3.541208 2.033687 8.593141 -7.999751 0.642438 21.68719 7.796441 4.301307 -22.26081 7.251521 5.888179 -16.80185 11.50973 87.32939 37.21412 -21.07273 -0 0 11.60513 -16.85755 14.03113 9.482485 4.811907 -20.86675 -3.440627 -90.72079 31.77407 19.28376 0 0 -23.01478 -4.527176 13.33696 21.28593
2.054221 103.5907 61.68365 -0.4973835 -2.93629 0.8085332 5.755814 -4.974636 2.594739 -0 13.35611 -0 -9.338523 -8.529077 -2.63805 -2.891364 -7.485181 -8.075035 -0 63.75019 -0 -7.068082 -3.801628 12.0644 -1.95523 -0.1836626 3.861261 2.003779 8.789707 -7.757913 0.5783604 21.85299 7.642591 4.092139 -22.05575 7.045882 5.711808 -17.08529 11.66446 86.44207 37.21258 -19.5057 -0 0 11.77629 -18.77393 14.38516 10.65685 4.343137 -20.50017 -3.424794 -90.29907 30.51475 19.30861 0 0 -21.76653 -4.162359 12.71872 20.6066
2.118787 104.3477 66.85913 0.4679885 -4.905957 0.2476074 4.951592 0.6340561 2.526514 -0 10.56117 -0 -8.021968 -8.942296 -2.466834 -2.102207 -13.26008 -6.739596 -0 60.50476 -0 -6.312893 -4.647089 14.19716 -2.251464 -0.1144881 4.287463 1.876769 9.032313 -7.446661 0.5621179 21.97691 7.488872 3.895922 -21.7663 6.8936 5.525631 -17.45327 11.79753 85.44477 37.0938 -17.78944 -0 0 12.1964 -20.72928 14.7165 11.81566 3.956554 -20.12149 -3.381033 -89.95651 29.22149 19.45295 0 0 -20.51737 -3.680402 12.07987 19.8095
2.199155 104.4435 71.95652 0.7493263 -5.855414 -0.2451279 4.827564 5.327764 2.36841 -0 8.565739 -0 -6.961733 -10.25854 -2.137742 -0.5187523 -18.45722 -4.955597 -0 51.50423 -0 -5.653791 -5.352816 15.91032 -2.530119 -0.08642602 4.818662 1.656438 9.283407 -7.047488 0.59078 22.08479 7.33167 3.713195 -21.41567 6.791322 5.322957 -17.92624 11.90954 84.30201 36.82982 -15.8727 -0 0 12.92137 -22.6499 14.95645 12.91805 3.622082 -19.6796 -3.309393 -89.79638 27.99341 19.8496 0 0 -19.1777 -3.189631 11.46071 19.00911
2.364689 103.8932 77.15135 0.4099466 -5.632384 -0.7596542 5.082095 9.028905 1.993463 -0 7.550106 -0 -6.263656 -12.63868 -1.637091 1.394373 -22.65688 -3.195758 -0 39.27081 -0 -5.124878 -5.623311 17.11704 -2.784563 -0.09176116 5.440735 1.354661 9.502487 -6.555331 0.6576386 22.18654 7.179942 3.551375 -21.04224 6.741388 5.100037 -18.50805 11.99866 83.01922 36.42792 -13.76188 -0 0 13.96987 -24.44329 15.06838 13.91493 3.331629 -19.14963 -3.203519 -89.8849 26.92047 20.57901 0 0 -17.73149 -2.760614 10.90235 18.28981
2.643239 102.8502 82.56152 -0.1878327 -4.750616 -1.308269 5.262012 11.95369 1.585762 -0 7.375866 -0 -5.674991 -15.34574 -1.12567 2.915869 -25.51549 -2.138071 -0 27.53994 -0 -4.915783 -5.623056 17.97983 -2.992993 -0.1203284 6.101735 1.002664 9.666036 -6.008209 0.7512076 22.26542 7.052955 3.42382 -20.68063 6.744172 4.870757 -19.14722 12.0618 81.69557 35.91546 -11.6116 -0 0 15.25496 -26.01042 15.07397 14.75639 3.106287 -18.56903 -3.068153 -90.18733 26.04296 21.5611 0 0 -16.28689 -2.416771 10.42437 17.69162
3.014929 101.4999 88.22524 -0.6646741 -4.031957 -1.896853 5.113104 14.40314 1.350803 -0 7.920678 -0 -5.145811 -17.32064 -0.8247194 3.58279 -26.98313 -2.089395 -0 19.15907 -0 -4.962507 -5.65618 18.77729 -3.131624 -0.1585198 6.72096 0.6452314 9.782974 -5.482107 0.8578284 22.29403 6.965278 3.338832 -20.33903 6.789289 4.664754 -19.74446 12.09773 80.5045 35.32466 -9.692093 -0 0 16.58734 -27.28838 15.04292 15.41215 2.973539 -18.02523 -2.930544 -90.56839 25.33862 22.56245 0 0 -15.02242 -2.149781 10.01076 17.21837
